<svg xmlns="http://www.w3.org/2000/svg" width="16" height="14" viewBox="0 0 16 14"><g><g><path fill="#fff" d="M16 8.356c0 1.868-1.497 3.387-3.337 3.387h-.156v-1.266h.156c1.152 0 2.09-.951 2.09-2.12 0-1.17-.938-2.121-2.09-2.121h-.905V5.127c0-2.129-1.707-3.861-3.805-3.861-1.958 0-3.585 1.488-3.785 3.462l-.053.524-.518.042c-1.317.107-2.35 1.244-2.35 2.588 0 1.329.965 2.439 2.25 2.595h.027v.003h.004l-.004.04v1.223h-.096l-.033-.003A3.766 3.766 0 0 1 .98 10.478 3.916 3.916 0 0 1 0 7.882c0-.977.36-1.91 1.014-2.626a3.782 3.782 0 0 1 1.987-1.15A5.137 5.137 0 0 1 4.557 1.33 5 5 0 0 1 7.953 0c2.74 0 4.977 2.224 5.05 4.987C14.685 5.16 16 6.605 16 8.357zm-4.639 2.216L7.984 14l-3.377-3.428.882-.895 1.871 1.899v-6.29h1.248v6.29l1.871-1.9z"/></g></g></svg>